<svg version="1.1" xmlns="http://www.w3.org/2000/svg" xmlns:xlink="http://www.w3.org/1999/xlink" width="1508.48095703125" height="963"><defs/><g><g><path fill="#ffffff" stroke="none" paint-order="stroke fill markers" d=" M 36.630458984375 75.85 C 36.630458984375 70.96227952000001 40.588261352374985 67 45.470458984375 67 C 50.352656616375015 67 54.310458984375 70.96227952000001 54.310458984375 75.85 C 54.310458984375 80.73772047999998 50.352656616375015 84.69999999999999 45.470458984375 84.69999999999999 C 40.588261352374985 84.69999999999999 36.630458984375 80.73772047999998 36.630458984375 75.85 Z"/></g><g><path fill="none" stroke="#000000" paint-order="fill stroke markers" d=" M 36.630458984375 75.85 C 36.630458984375 70.96227952000001 40.588261352374985 67 45.470458984375 67 C 50.352656616375015 67 54.310458984375 70.96227952000001 54.310458984375 75.85 C 54.310458984375 80.73772047999998 50.352656616375015 84.69999999999999 45.470458984375 84.69999999999999 C 40.588261352374985 84.69999999999999 36.630458984375 80.73772047999998 36.630458984375 75.85 Z" stroke-miterlimit="10" stroke-dasharray=""/></g><g><path fill="none" stroke="#000000" paint-order="fill stroke markers" d=" M 45.470458984375 84.69999999999999 L 45.470458984375 102.30000000000001" stroke-miterlimit="10" stroke-dasharray=""/></g><g><path fill="none" stroke="#000000" paint-order="fill stroke markers" d=" M 36.110458984374986 91.30000000000001 L 54.830458984375014 91.30000000000001" stroke-miterlimit="10" stroke-dasharray=""/></g><g><path fill="none" stroke="#000000" paint-order="fill stroke markers" d=" M 45.470458984375 102.30000000000001 L 32.470458984375 120" stroke-miterlimit="10" stroke-dasharray=""/></g><g><path fill="none" stroke="#000000" paint-order="fill stroke markers" d=" M 45.470458984375 102.30000000000001 L 58.470458984375 120" stroke-miterlimit="10" stroke-dasharray=""/></g><g><g><path fill="none" stroke="none"/><text fill="#000000" stroke="none" font-family="Arial" font-size="13px" font-style="normal" font-weight="bold" text-decoration="undefined" x="163.970458984375" y="264.5" text-anchor="middle" dominant-baseline="central" transform="matrix(1 0 0 1 -118 -130)">študent</text></g></g><g><path fill="#ffffff" stroke="none" paint-order="stroke fill markers" d=" M 36.009853515625 703.85 C 36.009853515625 698.96227952 39.967655883624985 695 44.849853515625 695 C 49.732051147625015 695 53.689853515625 698.96227952 53.689853515625 703.85 C 53.689853515625 708.73772048 49.732051147625015 712.7 44.849853515625 712.7 C 39.967655883624985 712.7 36.009853515625 708.73772048 36.009853515625 703.85 Z"/></g><g><path fill="none" stroke="#000000" paint-order="fill stroke markers" d=" M 36.009853515625 703.85 C 36.009853515625 698.96227952 39.967655883624985 695 44.849853515625 695 C 49.732051147625015 695 53.689853515625 698.96227952 53.689853515625 703.85 C 53.689853515625 708.73772048 49.732051147625015 712.7 44.849853515625 712.7 C 39.967655883624985 712.7 36.009853515625 708.73772048 36.009853515625 703.85 Z" stroke-miterlimit="10" stroke-dasharray=""/></g><g><path fill="none" stroke="#000000" paint-order="fill stroke markers" d=" M 44.849853515625 712.7 L 44.849853515625 730.3" stroke-miterlimit="10" stroke-dasharray=""/></g><g><path fill="none" stroke="#000000" paint-order="fill stroke markers" d=" M 35.489853515624986 719.3 L 54.209853515625014 719.3" stroke-miterlimit="10" stroke-dasharray=""/></g><g><path fill="none" stroke="#000000" paint-order="fill stroke markers" d=" M 44.849853515625 730.3 L 31.849853515625 748" stroke-miterlimit="10" stroke-dasharray=""/></g><g><path fill="none" stroke="#000000" paint-order="fill stroke markers" d=" M 44.849853515625 730.3 L 57.849853515625 748" stroke-miterlimit="10" stroke-dasharray=""/></g><g><g><path fill="none" stroke="none"/><text fill="#000000" stroke="none" font-family="Arial" font-size="13px" font-style="normal" font-weight="bold" text-decoration="undefined" x="163.349853515625" y="892.5" text-anchor="middle" dominant-baseline="central" transform="matrix(1 0 0 1 -118 -130)">verejnosť</text></g></g><g><path fill="none" stroke="#000000" paint-order="fill stroke markers" d=" M 45 147 L 44 693" stroke-miterlimit="10" stroke-dasharray=""/></g><g><path fill="#FFFFFF" stroke="none" paint-order="stroke fill markers" d=" M 35.618204461128755 672.6592649212336 L 44 693 L 52.456247244459774 672.6901038274302"/></g><g><path fill="none" stroke="#000000" paint-order="fill stroke markers" d=" M 35.618204461128755 672.6592649212336 L 44 693 L 52.456247244459774 672.6901038274302 L 35.618204461128755 672.6592649212336" stroke-miterlimit="10" stroke-dasharray=""/></g><g><path fill="#C0C0C0" stroke="none" paint-order="stroke fill markers" d=" M 210 622.5 C 210 612.835016 273.5755584 605 352 605 C 430.4244416 605 494 612.835016 494 622.5 C 494 632.164984 430.4244416 640 352 640 C 273.5755584 640 210 632.164984 210 622.5 Z" fill-opacity="0.2"/></g><g><path fill="#ffffff" stroke="none" paint-order="stroke fill markers" d=" M 203 615.5 C 203 605.835016 266.5755584 598 345 598 C 423.4244416 598 487 605.835016 487 615.5 C 487 625.164984 423.4244416 633 345 633 C 266.5755584 633 203 625.164984 203 615.5 Z"/></g><g><path fill="none" stroke="#000000" paint-order="fill stroke markers" d=" M 203 615.5 C 203 605.835016 266.5755584 598 345 598 C 423.4244416 598 487 605.835016 487 615.5 C 487 625.164984 423.4244416 633 345 633 C 266.5755584 633 203 625.164984 203 615.5 Z" stroke-miterlimit="10" stroke-dasharray=""/></g><g><g><path fill="none" stroke="none"/><text fill="#000000" stroke="none" font-family="Arial" font-size="13px" font-style="normal" font-weight="bold" text-decoration="undefined" x="463" y="746.5" text-anchor="middle" dominant-baseline="central" transform="matrix(1 0 0 1 -118 -130)">prezerá si inzeráty na vyskumy</text></g></g><g><path fill="#C0C0C0" stroke="none" paint-order="stroke fill markers" d=" M 225 686.5 C 225 676.835016 281.85983039999996 669 352 669 C 422.14016960000004 669 479 676.835016 479 686.5 C 479 696.164984 422.14016960000004 704 352 704 C 281.85983039999996 704 225 696.164984 225 686.5 Z" fill-opacity="0.2"/></g><g><path fill="#ffffff" stroke="none" paint-order="stroke fill markers" d=" M 218 679.5 C 218 669.835016 274.85983039999996 662 345 662 C 415.14016960000004 662 472 669.835016 472 679.5 C 472 689.164984 415.14016960000004 697 345 697 C 274.85983039999996 697 218 689.164984 218 679.5 Z"/></g><g><path fill="none" stroke="#000000" paint-order="fill stroke markers" d=" M 218 679.5 C 218 669.835016 274.85983039999996 662 345 662 C 415.14016960000004 662 472 669.835016 472 679.5 C 472 689.164984 415.14016960000004 697 345 697 C 274.85983039999996 697 218 689.164984 218 679.5 Z" stroke-miterlimit="10" stroke-dasharray=""/></g><g><g><path fill="none" stroke="none"/><text fill="#000000" stroke="none" font-family="Arial" font-size="13px" font-style="normal" font-weight="bold" text-decoration="undefined" x="463" y="810.5" text-anchor="middle" dominant-baseline="central" transform="matrix(1 0 0 1 -118 -130)">prihlasuje sa na mailing list</text></g></g><g><path fill="#C0C0C0" stroke="none" paint-order="stroke fill markers" d=" M 226 750.5 C 226 740.835016 282.4121152 733 352 733 C 421.5878848 733 478 740.835016 478 750.5 C 478 760.164984 421.5878848 768 352 768 C 282.4121152 768 226 760.164984 226 750.5 Z" fill-opacity="0.2"/></g><g><path fill="#ffffff" stroke="none" paint-order="stroke fill markers" d=" M 219 743.5 C 219 733.835016 275.4121152 726 345 726 C 414.5878848 726 471 733.835016 471 743.5 C 471 753.164984 414.5878848 761 345 761 C 275.4121152 761 219 753.164984 219 743.5 Z"/></g><g><path fill="none" stroke="#000000" paint-order="fill stroke markers" d=" M 219 743.5 C 219 733.835016 275.4121152 726 345 726 C 414.5878848 726 471 733.835016 471 743.5 C 471 753.164984 414.5878848 761 345 761 C 275.4121152 761 219 753.164984 219 743.5 Z" stroke-miterlimit="10" stroke-dasharray=""/></g><g><g><path fill="none" stroke="none"/><text fill="#000000" stroke="none" font-family="Arial" font-size="13px" font-style="normal" font-weight="bold" text-decoration="undefined" x="463" y="874.5" text-anchor="middle" dominant-baseline="central" transform="matrix(1 0 0 1 -118 -130)">odhlasuje sa z mailing listu</text></g></g><g><path fill="#C0C0C0" stroke="none" paint-order="stroke fill markers" d=" M 201 822.5 C 201 812.835016 268.60499519999996 805 352 805 C 435.39500480000004 805 503 812.835016 503 822.5 C 503 832.164984 435.39500480000004 840 352 840 C 268.60499519999996 840 201 832.164984 201 822.5 Z" fill-opacity="0.2"/></g><g><path fill="#ffffff" stroke="none" paint-order="stroke fill markers" d=" M 194 815.5 C 194 805.835016 261.60499519999996 798 345 798 C 428.39500480000004 798 496 805.835016 496 815.5 C 496 825.164984 428.39500480000004 833 345 833 C 261.60499519999996 833 194 825.164984 194 815.5 Z"/></g><g><path fill="none" stroke="#000000" paint-order="fill stroke markers" d=" M 194 815.5 C 194 805.835016 261.60499519999996 798 345 798 C 428.39500480000004 798 496 805.835016 496 815.5 C 496 825.164984 428.39500480000004 833 345 833 C 261.60499519999996 833 194 825.164984 194 815.5 Z" stroke-miterlimit="10" stroke-dasharray=""/></g><g><g><path fill="none" stroke="none"/><text fill="#000000" stroke="none" font-family="Arial" font-size="13px" font-style="normal" font-weight="bold" text-decoration="undefined" x="463" y="946.5" text-anchor="middle" dominant-baseline="central" transform="matrix(1 0 0 1 -118 -130)">prezerá si informácie o predmete</text></g></g><g><path fill="none" stroke="#000000" paint-order="fill stroke markers" d=" M 81 719 L 297 634" stroke-miterlimit="10" stroke-dasharray=""/></g><g><path fill="none" stroke="#000000" paint-order="fill stroke markers" d=" M 81 727 L 241 698" stroke-miterlimit="10" stroke-dasharray=""/></g><g><path fill="none" stroke="#000000" paint-order="fill stroke markers" d=" M 81 735 L 218 739" stroke-miterlimit="10" stroke-dasharray=""/></g><g><path fill="none" stroke="#000000" paint-order="fill stroke markers" d=" M 81 744 L 278 797" stroke-miterlimit="10" stroke-dasharray=""/></g><g><path fill="#C0C0C0" stroke="none" paint-order="stroke fill markers" d=" M 262 282.5 C 262 272.835016 304.0852288 265 356 265 C 407.9147712 265 450 272.835016 450 282.5 C 450 292.164984 407.9147712 300 356 300 C 304.0852288 300 262 292.164984 262 282.5 Z" fill-opacity="0.2"/></g><g><path fill="#ffffff" stroke="none" paint-order="stroke fill markers" d=" M 255 275.5 C 255 265.835016 297.0852288 258 349 258 C 400.9147712 258 443 265.835016 443 275.5 C 443 285.164984 400.9147712 293 349 293 C 297.0852288 293 255 285.164984 255 275.5 Z"/></g><g><path fill="none" stroke="#000000" paint-order="fill stroke markers" d=" M 255 275.5 C 255 265.835016 297.0852288 258 349 258 C 400.9147712 258 443 265.835016 443 275.5 C 443 285.164984 400.9147712 293 349 293 C 297.0852288 293 255 285.164984 255 275.5 Z" stroke-miterlimit="10" stroke-dasharray=""/></g><g><g><path fill="none" stroke="none"/><text fill="#000000" stroke="none" font-family="Arial" font-size="13px" font-style="normal" font-weight="bold" text-decoration="undefined" x="467" y="406.5" text-anchor="middle" dominant-baseline="central" transform="matrix(1 0 0 1 -118 -130)">účastní sa výskumu</text></g></g><g><path fill="#C0C0C0" stroke="none" paint-order="stroke fill markers" d=" M 239 34.5 C 239 24.835015999999996 291.1588208 17 355.5 17 C 419.84117919999994 17 472 24.835015999999996 472 34.5 C 472 44.164984000000004 419.84117919999994 52 355.5 52 C 291.1588208 52 239 44.164984000000004 239 34.5 Z" fill-opacity="0.2"/></g><g><path fill="#ffffff" stroke="none" paint-order="stroke fill markers" d=" M 232 27.5 C 232 17.835015999999996 284.1588208 10 348.5 10 C 412.84117919999994 10 465 17.835015999999996 465 27.5 C 465 37.164984000000004 412.84117919999994 45 348.5 45 C 284.1588208 45 232 37.164984000000004 232 27.5 Z"/></g><g><path fill="none" stroke="#000000" paint-order="fill stroke markers" d=" M 232 27.5 C 232 17.835015999999996 284.1588208 10 348.5 10 C 412.84117919999994 10 465 17.835015999999996 465 27.5 C 465 37.164984000000004 412.84117919999994 45 348.5 45 C 284.1588208 45 232 37.164984000000004 232 27.5 Z" stroke-miterlimit="10" stroke-dasharray=""/></g><g><g><path fill="none" stroke="none"/><text fill="#000000" stroke="none" font-family="Arial" font-size="13px" font-style="normal" font-weight="bold" text-decoration="undefined" x="466.5" y="158.5" text-anchor="middle" dominant-baseline="central" transform="matrix(1 0 0 1 -118 -130)">špecifikuje svoje atribúty</text></g></g><g><path fill="#C0C0C0" stroke="none" paint-order="stroke fill markers" d=" M 175 114 C 175 100.7451648 255.8125936 90 355.5 90 C 455.1874064 90 536 100.7451648 536 114 C 536 127.2548352 455.1874064 138 355.5 138 C 255.8125936 138 175 127.2548352 175 114 Z" fill-opacity="0.2"/></g><g><path fill="#ffffff" stroke="none" paint-order="stroke fill markers" d=" M 168 107 C 168 93.7451648 248.8125936 83 348.5 83 C 448.1874064 83 529 93.7451648 529 107 C 529 120.2548352 448.1874064 131 348.5 131 C 248.8125936 131 168 120.2548352 168 107 Z"/></g><g><path fill="none" stroke="#000000" paint-order="fill stroke markers" d=" M 168 107 C 168 93.7451648 248.8125936 83 348.5 83 C 448.1874064 83 529 93.7451648 529 107 C 529 120.2548352 448.1874064 131 348.5 131 C 248.8125936 131 168 120.2548352 168 107 Z" stroke-miterlimit="10" stroke-dasharray=""/></g><g><g><path fill="none" stroke="none"/><text fill="#000000" stroke="none" font-family="Arial" font-size="13px" font-style="normal" font-weight="bold" text-decoration="undefined" x="466.5" y="238" text-anchor="middle" dominant-baseline="central" transform="matrix(1 0 0 1 -118 -130)">sleduje výskumy do ktorých sa prihlásil</text></g></g><g><path fill="none" stroke="#000000" paint-order="fill stroke markers" d=" M 75 98 L 275 46" stroke-miterlimit="10" stroke-dasharray=""/></g><g><path fill="none" stroke="#000000" paint-order="fill stroke markers" d=" M 75 106 L 167 106" stroke-miterlimit="10" stroke-dasharray=""/></g><g><path fill="#C0C0C0" stroke="none" paint-order="stroke fill markers" d=" M 644 113.5 C 644 103.835016 695.2633904 96 758.5 96 C 821.7366096 96 873 103.835016 873 113.5 C 873 123.164984 821.7366096 131 758.5 131 C 695.2633904 131 644 123.164984 644 113.5 Z" fill-opacity="0.2"/></g><g><path fill="#ffffff" stroke="none" paint-order="stroke fill markers" d=" M 637 106.5 C 637 96.835016 688.2633904 89 751.5 89 C 814.7366096 89 866 96.835016 866 106.5 C 866 116.164984 814.7366096 124 751.5 124 C 688.2633904 124 637 116.164984 637 106.5 Z"/></g><g><path fill="none" stroke="#000000" paint-order="fill stroke markers" d=" M 637 106.5 C 637 96.835016 688.2633904 89 751.5 89 C 814.7366096 89 866 96.835016 866 106.5 C 866 116.164984 814.7366096 124 751.5 124 C 688.2633904 124 637 116.164984 637 106.5 Z" stroke-miterlimit="10" stroke-dasharray=""/></g><g><g><path fill="none" stroke="none"/><text fill="#000000" stroke="none" font-family="Arial" font-size="13px" font-style="normal" font-weight="bold" text-decoration="undefined" x="869.5" y="237.5" text-anchor="middle" dominant-baseline="central" transform="matrix(1 0 0 1 -118 -130)">sleduje svoj bodový zisk</text></g></g><g><path fill="none" stroke="#000000" paint-order="fill stroke markers" d=" M 530 107 L 636 106" stroke-miterlimit="10" stroke-dasharray="3"/></g><g><path fill="none" stroke="#000000" paint-order="fill stroke markers" d=" M 625.877488013996 110.3052004707335 L 636 106 L 625.7980666848313 101.88653957927758" stroke-miterlimit="10" stroke-dasharray=""/></g><g><rect fill="#ffffff" stroke="none" x="674" y="200" width="55.65625" height="13" transform="matrix(1 0 0 1 -118 -130)"/></g><g><g><path fill="none" stroke="none"/><text fill="#000000" stroke="none" font-family="Arial" font-size="13px" font-style="normal" font-weight="normal" text-decoration="undefined" x="701.828125" y="206.5" text-anchor="middle" dominant-baseline="central" transform="matrix(1 0 0 1 -118 -130)">«include»</text></g></g><g><path fill="#C0C0C0" stroke="none" paint-order="stroke fill markers" d=" M 177 198.5 C 177 188.835016 257.1410208 181 356 181 C 454.8589792 181 535 188.835016 535 198.5 C 535 208.164984 454.8589792 216 356 216 C 257.1410208 216 177 208.164984 177 198.5 Z" fill-opacity="0.2"/></g><g><path fill="#ffffff" stroke="none" paint-order="stroke fill markers" d=" M 170 191.5 C 170 181.835016 250.14102079999998 174 349 174 C 447.8589792 174 528 181.835016 528 191.5 C 528 201.164984 447.8589792 209 349 209 C 250.14102079999998 209 170 201.164984 170 191.5 Z"/></g><g><path fill="none" stroke="#000000" paint-order="fill stroke markers" d=" M 170 191.5 C 170 181.835016 250.14102079999998 174 349 174 C 447.8589792 174 528 181.835016 528 191.5 C 528 201.164984 447.8589792 209 349 209 C 250.14102079999998 209 170 201.164984 170 191.5 Z" stroke-miterlimit="10" stroke-dasharray=""/></g><g><g><path fill="none" stroke="none"/><text fill="#000000" stroke="none" font-family="Arial" font-size="13px" font-style="normal" font-weight="bold" text-decoration="undefined" x="467" y="322.5" text-anchor="middle" dominant-baseline="central" transform="matrix(1 0 0 1 -118 -130)">odovzdáva svoj anonymný identifikátor</text></g></g><g><path fill="#C0C0C0" stroke="none" paint-order="stroke fill markers" d=" M 584 282.5 C 584 272.835016 662.35016 265 759 265 C 855.64984 265 934 272.835016 934 282.5 C 934 292.164984 855.64984 300 759 300 C 662.35016 300 584 292.164984 584 282.5 Z" fill-opacity="0.2"/></g><g><path fill="#ffffff" stroke="none" paint-order="stroke fill markers" d=" M 577 275.5 C 577 265.835016 655.35016 258 752 258 C 848.64984 258 927 265.835016 927 275.5 C 927 285.164984 848.64984 293 752 293 C 655.35016 293 577 285.164984 577 275.5 Z"/></g><g><path fill="none" stroke="#000000" paint-order="fill stroke markers" d=" M 577 275.5 C 577 265.835016 655.35016 258 752 258 C 848.64984 258 927 265.835016 927 275.5 C 927 285.164984 848.64984 293 752 293 C 655.35016 293 577 285.164984 577 275.5 Z" stroke-miterlimit="10" stroke-dasharray=""/></g><g><g><path fill="none" stroke="none"/><text fill="#000000" stroke="none" font-family="Arial" font-size="13px" font-style="normal" font-weight="bold" text-decoration="undefined" x="870" y="406.5" text-anchor="middle" dominant-baseline="central" transform="matrix(1 0 0 1 -118 -130)">upravuje prihlášku na termín výskumu</text></g></g><g><path fill="#C0C0C0" stroke="none" paint-order="stroke fill markers" d=" M 610 362.5 C 610 352.835016 676.4857072 345 758.5 345 C 840.5142928 345 907 352.835016 907 362.5 C 907 372.164984 840.5142928 380 758.5 380 C 676.4857072 380 610 372.164984 610 362.5 Z" fill-opacity="0.2"/></g><g><path fill="#ffffff" stroke="none" paint-order="stroke fill markers" d=" M 603 355.5 C 603 345.835016 669.4857072 338 751.5 338 C 833.5142928 338 900 345.835016 900 355.5 C 900 365.164984 833.5142928 373 751.5 373 C 669.4857072 373 603 365.164984 603 355.5 Z"/></g><g><path fill="none" stroke="#000000" paint-order="fill stroke markers" d=" M 603 355.5 C 603 345.835016 669.4857072 338 751.5 338 C 833.5142928 338 900 345.835016 900 355.5 C 900 365.164984 833.5142928 373 751.5 373 C 669.4857072 373 603 365.164984 603 355.5 Z" stroke-miterlimit="10" stroke-dasharray=""/></g><g><g><path fill="none" stroke="none"/><text fill="#000000" stroke="none" font-family="Arial" font-size="13px" font-style="normal" font-weight="bold" text-decoration="undefined" x="869.5" y="486.5" text-anchor="middle" dominant-baseline="central" transform="matrix(1 0 0 1 -118 -130)">odhlasuje sa z termínu výskumu</text></g></g><g><path fill="none" stroke="#000000" paint-order="fill stroke markers" d=" M 444 275 L 576 275" stroke-miterlimit="10" stroke-dasharray="3"/></g><g><path fill="none" stroke="#000000" paint-order="fill stroke markers" d=" M 565.8373251423759 279.209517756016 L 576 275 L 565.8373251423758 270.790482243984" stroke-miterlimit="10" stroke-dasharray=""/></g><g><rect fill="#ffffff" stroke="none" x="601" y="369" width="55.65625" height="13" transform="matrix(1 0 0 1 -118 -130)"/></g><g><g><path fill="none" stroke="none"/><text fill="#000000" stroke="none" font-family="Arial" font-size="13px" font-style="normal" font-weight="normal" text-decoration="undefined" x="628.828125" y="375.5" text-anchor="middle" dominant-baseline="central" transform="matrix(1 0 0 1 -118 -130)">«include»</text></g></g><g><path fill="none" stroke="#000000" paint-order="fill stroke markers" d=" M 751 337 L 752 294" stroke-miterlimit="10" stroke-dasharray="3"/></g><g><path fill="none" stroke="#000000" paint-order="fill stroke markers" d=" M 755.9721025036246 304.2577971173493 L 752 294 L 747.5553427141674 304.0620585175945" stroke-miterlimit="10" stroke-dasharray=""/></g><g><rect fill="#ffffff" stroke="none" x="813" y="437" width="53.49169921875" height="13" transform="matrix(1 0 0 1 -118 -130)"/></g><g><g><path fill="none" stroke="none"/><text fill="#000000" stroke="none" font-family="Arial" font-size="13px" font-style="normal" font-weight="normal" text-decoration="undefined" x="839.745849609375" y="443.5" text-anchor="middle" dominant-baseline="central" transform="matrix(1 0 0 1 -118 -130)">«extend»</text></g></g><g><path fill="#C0C0C0" stroke="none" paint-order="stroke fill markers" d=" M 609 198.5 C 609 188.835016 675.9334224 181 758.5 181 C 841.0665776 181 908 188.835016 908 198.5 C 908 208.164984 841.0665776 216 758.5 216 C 675.9334224 216 609 208.164984 609 198.5 Z" fill-opacity="0.2"/></g><g><path fill="#ffffff" stroke="none" paint-order="stroke fill markers" d=" M 602 191.5 C 602 181.835016 668.9334224 174 751.5 174 C 834.0665776 174 901 181.835016 901 191.5 C 901 201.164984 834.0665776 209 751.5 209 C 668.9334224 209 602 201.164984 602 191.5 Z"/></g><g><path fill="none" stroke="#000000" paint-order="fill stroke markers" d=" M 602 191.5 C 602 181.835016 668.9334224 174 751.5 174 C 834.0665776 174 901 181.835016 901 191.5 C 901 201.164984 834.0665776 209 751.5 209 C 668.9334224 209 602 201.164984 602 191.5 Z" stroke-miterlimit="10" stroke-dasharray=""/></g><g><g><path fill="none" stroke="none"/><text fill="#000000" stroke="none" font-family="Arial" font-size="13px" font-style="normal" font-weight="bold" text-decoration="undefined" x="869.5" y="322.5" text-anchor="middle" dominant-baseline="central" transform="matrix(1 0 0 1 -118 -130)">prihlasuje sa na termín výskumu</text></g></g><g><path fill="none" stroke="#000000" paint-order="fill stroke markers" d=" M 752 257 L 751 210" stroke-miterlimit="10" stroke-dasharray="3"/></g><g><path fill="none" stroke="#000000" paint-order="fill stroke markers" d=" M 755.4247434676047 220.0708314078774 L 751 210 L 747.0076129302576 220.2499192916507" stroke-miterlimit="10" stroke-dasharray=""/></g><g><rect fill="#ffffff" stroke="none" x="812" y="356" width="55.65625" height="13" transform="matrix(1 0 0 1 -118 -130)"/></g><g><g><path fill="none" stroke="none"/><text fill="#000000" stroke="none" font-family="Arial" font-size="13px" font-style="normal" font-weight="normal" text-decoration="undefined" x="839.828125" y="362.5" text-anchor="middle" dominant-baseline="central" transform="matrix(1 0 0 1 -118 -130)">«include»</text></g></g><g><path fill="#ffffff" stroke="none" paint-order="stroke fill markers" d=" M 1448.143154296875 59.849999999999994 C 1448.143154296875 54.96227952000001 1452.100956664875 51 1456.983154296875 51 C 1461.865351928875 51 1465.823154296875 54.96227952000001 1465.823154296875 59.849999999999994 C 1465.823154296875 64.73772047999998 1461.865351928875 68.69999999999999 1456.983154296875 68.69999999999999 C 1452.100956664875 68.69999999999999 1448.143154296875 64.73772047999998 1448.143154296875 59.849999999999994 Z"/></g><g><path fill="none" stroke="#000000" paint-order="fill stroke markers" d=" M 1448.143154296875 59.849999999999994 C 1448.143154296875 54.96227952000001 1452.100956664875 51 1456.983154296875 51 C 1461.865351928875 51 1465.823154296875 54.96227952000001 1465.823154296875 59.849999999999994 C 1465.823154296875 64.73772047999998 1461.865351928875 68.69999999999999 1456.983154296875 68.69999999999999 C 1452.100956664875 68.69999999999999 1448.143154296875 64.73772047999998 1448.143154296875 59.849999999999994 Z" stroke-miterlimit="10" stroke-dasharray=""/></g><g><path fill="none" stroke="#000000" paint-order="fill stroke markers" d=" M 1456.983154296875 68.69999999999999 L 1456.983154296875 86.30000000000001" stroke-miterlimit="10" stroke-dasharray=""/></g><g><path fill="none" stroke="#000000" paint-order="fill stroke markers" d=" M 1447.623154296875 75.30000000000001 L 1466.343154296875 75.30000000000001" stroke-miterlimit="10" stroke-dasharray=""/></g><g><path fill="none" stroke="#000000" paint-order="fill stroke markers" d=" M 1456.983154296875 86.30000000000001 L 1443.983154296875 104" stroke-miterlimit="10" stroke-dasharray=""/></g><g><path fill="none" stroke="#000000" paint-order="fill stroke markers" d=" M 1456.983154296875 86.30000000000001 L 1469.983154296875 104" stroke-miterlimit="10" stroke-dasharray=""/></g><g><g><path fill="none" stroke="none"/><text fill="#000000" stroke="none" font-family="Arial" font-size="13px" font-style="normal" font-weight="bold" text-decoration="undefined" x="1575.483154296875" y="248.5" text-anchor="middle" dominant-baseline="central" transform="matrix(1 0 0 1 -118 -130)">vyučujúci</text></g></g><g><path fill="#ffffff" stroke="none" paint-order="stroke fill markers" d=" M 1448.590419921875 407.85 C 1448.590419921875 402.96227952000004 1452.548222289875 399 1457.430419921875 399 C 1462.312617553875 399 1466.270419921875 402.96227952000004 1466.270419921875 407.85 C 1466.270419921875 412.73772048 1462.312617553875 416.70000000000005 1457.430419921875 416.70000000000005 C 1452.548222289875 416.70000000000005 1448.590419921875 412.73772048 1448.590419921875 407.85 Z"/></g><g><path fill="none" stroke="#000000" paint-order="fill stroke markers" d=" M 1448.590419921875 407.85 C 1448.590419921875 402.96227952000004 1452.548222289875 399 1457.430419921875 399 C 1462.312617553875 399 1466.270419921875 402.96227952000004 1466.270419921875 407.85 C 1466.270419921875 412.73772048 1462.312617553875 416.70000000000005 1457.430419921875 416.70000000000005 C 1452.548222289875 416.70000000000005 1448.590419921875 412.73772048 1448.590419921875 407.85 Z" stroke-miterlimit="10" stroke-dasharray=""/></g><g><path fill="none" stroke="#000000" paint-order="fill stroke markers" d=" M 1457.430419921875 416.70000000000005 L 1457.430419921875 434.29999999999995" stroke-miterlimit="10" stroke-dasharray=""/></g><g><path fill="none" stroke="#000000" paint-order="fill stroke markers" d=" M 1448.070419921875 423.29999999999995 L 1466.790419921875 423.29999999999995" stroke-miterlimit="10" stroke-dasharray=""/></g><g><path fill="none" stroke="#000000" paint-order="fill stroke markers" d=" M 1457.430419921875 434.29999999999995 L 1444.430419921875 452" stroke-miterlimit="10" stroke-dasharray=""/></g><g><path fill="none" stroke="#000000" paint-order="fill stroke markers" d=" M 1457.430419921875 434.29999999999995 L 1470.430419921875 452" stroke-miterlimit="10" stroke-dasharray=""/></g><g><g><path fill="none" stroke="none"/><text fill="#000000" stroke="none" font-family="Arial" font-size="13px" font-style="normal" font-weight="bold" text-decoration="undefined" x="1575.930419921875" y="596.5" text-anchor="middle" dominant-baseline="central" transform="matrix(1 0 0 1 -118 -130)">superuser</text></g></g><g><path fill="none" stroke="#000000" paint-order="fill stroke markers" d=" M 1457 397 L 1456 131" stroke-miterlimit="10" stroke-dasharray=""/></g><g><path fill="#FFFFFF" stroke="none" paint-order="stroke fill markers" d=" M 1464.4953865684226 151.29355580111735 L 1456 131 L 1447.657434529975 151.35685637269046"/></g><g><path fill="none" stroke="#000000" paint-order="fill stroke markers" d=" M 1464.4953865684226 151.29355580111735 L 1456 131 L 1447.657434529975 151.35685637269046 L 1464.4953865684226 151.29355580111735" stroke-miterlimit="10" stroke-dasharray=""/></g><g><path fill="#C0C0C0" stroke="none" paint-order="stroke fill markers" d=" M 1023 62.5 C 1023 52.835015999999996 1085.680128 45 1163 45 C 1240.319872 45 1303 52.835015999999996 1303 62.5 C 1303 72.164984 1240.319872 80 1163 80 C 1085.680128 80 1023 72.164984 1023 62.5 Z" fill-opacity="0.2"/></g><g><path fill="#ffffff" stroke="none" paint-order="stroke fill markers" d=" M 1016 55.5 C 1016 45.835015999999996 1078.680128 38 1156 38 C 1233.319872 38 1296 45.835015999999996 1296 55.5 C 1296 65.164984 1233.319872 73 1156 73 C 1078.680128 73 1016 65.164984 1016 55.5 Z"/></g><g><path fill="none" stroke="#000000" paint-order="fill stroke markers" d=" M 1016 55.5 C 1016 45.835015999999996 1078.680128 38 1156 38 C 1233.319872 38 1296 45.835015999999996 1296 55.5 C 1296 65.164984 1233.319872 73 1156 73 C 1078.680128 73 1016 65.164984 1016 55.5 Z" stroke-miterlimit="10" stroke-dasharray=""/></g><g><g><path fill="none" stroke="none"/><text fill="#000000" stroke="none" font-family="Arial" font-size="13px" font-style="normal" font-weight="bold" text-decoration="undefined" x="1274" y="186.5" text-anchor="middle" dominant-baseline="central" transform="matrix(1 0 0 1 -118 -130)">sleduje bodový zisk študentov</text></g></g><g><path fill="#C0C0C0" stroke="none" paint-order="stroke fill markers" d=" M 1030 166.5 C 1030 156.835016 1089.322264 149 1162.5 149 C 1235.677736 149 1295 156.835016 1295 166.5 C 1295 176.164984 1235.677736 184 1162.5 184 C 1089.322264 184 1030 176.164984 1030 166.5 Z" fill-opacity="0.2"/></g><g><path fill="#ffffff" stroke="none" paint-order="stroke fill markers" d=" M 1023 159.5 C 1023 149.835016 1082.322264 142 1155.5 142 C 1228.677736 142 1288 149.835016 1288 159.5 C 1288 169.164984 1228.677736 177 1155.5 177 C 1082.322264 177 1023 169.164984 1023 159.5 Z"/></g><g><path fill="none" stroke="#000000" paint-order="fill stroke markers" d=" M 1023 159.5 C 1023 149.835016 1082.322264 142 1155.5 142 C 1228.677736 142 1288 149.835016 1288 159.5 C 1288 169.164984 1228.677736 177 1155.5 177 C 1082.322264 177 1023 169.164984 1023 159.5 Z" stroke-miterlimit="10" stroke-dasharray=""/></g><g><g><path fill="none" stroke="none"/><text fill="#000000" stroke="none" font-family="Arial" font-size="13px" font-style="normal" font-weight="bold" text-decoration="undefined" x="1273.5" y="290.5" text-anchor="middle" dominant-baseline="central" transform="matrix(1 0 0 1 -118 -130)">špecifikuje body pre výskum</text></g></g><g><path fill="#C0C0C0" stroke="none" paint-order="stroke fill markers" d=" M 1093 326.5 C 1093 316.835016 1124.1162064 309 1162.5 309 C 1200.8837936 309 1232 316.835016 1232 326.5 C 1232 336.164984 1200.8837936 344 1162.5 344 C 1124.1162064 344 1093 336.164984 1093 326.5 Z" fill-opacity="0.2"/></g><g><path fill="#ffffff" stroke="none" paint-order="stroke fill markers" d=" M 1086 319.5 C 1086 309.835016 1117.1162064 302 1155.5 302 C 1193.8837936 302 1225 309.835016 1225 319.5 C 1225 329.164984 1193.8837936 337 1155.5 337 C 1117.1162064 337 1086 329.164984 1086 319.5 Z"/></g><g><path fill="none" stroke="#000000" paint-order="fill stroke markers" d=" M 1086 319.5 C 1086 309.835016 1117.1162064 302 1155.5 302 C 1193.8837936 302 1225 309.835016 1225 319.5 C 1225 329.164984 1193.8837936 337 1155.5 337 C 1117.1162064 337 1086 329.164984 1086 319.5 Z" stroke-miterlimit="10" stroke-dasharray=""/></g><g><g><path fill="none" stroke="none"/><text fill="#000000" stroke="none" font-family="Arial" font-size="13px" font-style="normal" font-weight="bold" text-decoration="undefined" x="1273.5" y="450.5" text-anchor="middle" dominant-baseline="central" transform="matrix(1 0 0 1 -118 -130)">udáva atribúty</text></g></g><g><path fill="#C0C0C0" stroke="none" paint-order="stroke fill markers" d=" M 1039 422.5 C 1039 412.835016 1094.5166848 405 1163 405 C 1231.4833152 405 1287 412.835016 1287 422.5 C 1287 432.164984 1231.4833152 440 1163 440 C 1094.5166848 440 1039 432.164984 1039 422.5 Z" fill-opacity="0.2"/></g><g><path fill="#ffffff" stroke="none" paint-order="stroke fill markers" d=" M 1032 415.5 C 1032 405.835016 1087.5166848 398 1156 398 C 1224.4833152 398 1280 405.835016 1280 415.5 C 1280 425.164984 1224.4833152 433 1156 433 C 1087.5166848 433 1032 425.164984 1032 415.5 Z"/></g><g><path fill="none" stroke="#000000" paint-order="fill stroke markers" d=" M 1032 415.5 C 1032 405.835016 1087.5166848 398 1156 398 C 1224.4833152 398 1280 405.835016 1280 415.5 C 1280 425.164984 1224.4833152 433 1156 433 C 1087.5166848 433 1032 425.164984 1032 415.5 Z" stroke-miterlimit="10" stroke-dasharray=""/></g><g><g><path fill="none" stroke="none"/><text fill="#000000" stroke="none" font-family="Arial" font-size="13px" font-style="normal" font-weight="bold" text-decoration="undefined" x="1274" y="546.5" text-anchor="middle" dominant-baseline="central" transform="matrix(1 0 0 1 -118 -130)">prezerá si účasť študentov</text></g></g><g><path fill="#C0C0C0" stroke="none" paint-order="stroke fill markers" d=" M 1065 534.5 C 1065 524.835016 1108.652232 517 1162.5 517 C 1216.347768 517 1260 524.835016 1260 534.5 C 1260 544.164984 1216.347768 552 1162.5 552 C 1108.652232 552 1065 544.164984 1065 534.5 Z" fill-opacity="0.2"/></g><g><path fill="#ffffff" stroke="none" paint-order="stroke fill markers" d=" M 1058 527.5 C 1058 517.835016 1101.652232 510 1155.5 510 C 1209.347768 510 1253 517.835016 1253 527.5 C 1253 537.164984 1209.347768 545 1155.5 545 C 1101.652232 545 1058 537.164984 1058 527.5 Z"/></g><g><path fill="none" stroke="#000000" paint-order="fill stroke markers" d=" M 1058 527.5 C 1058 517.835016 1101.652232 510 1155.5 510 C 1209.347768 510 1253 517.835016 1253 527.5 C 1253 537.164984 1209.347768 545 1155.5 545 C 1101.652232 545 1058 537.164984 1058 527.5 Z" stroke-miterlimit="10" stroke-dasharray=""/></g><g><g><path fill="none" stroke="none"/><text fill="#000000" stroke="none" font-family="Arial" font-size="13px" font-style="normal" font-weight="bold" text-decoration="undefined" x="1273.5" y="658.5" text-anchor="middle" dominant-baseline="central" transform="matrix(1 0 0 1 -118 -130)">odomyká tajné údaje</text></g></g><g><path fill="none" stroke="#000000" paint-order="fill stroke markers" d=" M 1156 434 L 1155 509" stroke-miterlimit="10" stroke-dasharray="3"/></g><g><path fill="none" stroke="#000000" paint-order="fill stroke markers" d=" M 1150.9263466618459 498.7821064558028 L 1155 509 L 1159.344633914932 498.894350285844" stroke-miterlimit="10" stroke-dasharray=""/></g><g><rect fill="#ffffff" stroke="none" x="1275" y="594" width="55.65625" height="13" transform="matrix(1 0 0 1 -118 -130)"/></g><g><g><path fill="none" stroke="none"/><text fill="#000000" stroke="none" font-family="Arial" font-size="13px" font-style="normal" font-weight="normal" text-decoration="undefined" x="1302.828125" y="600.5" text-anchor="middle" dominant-baseline="central" transform="matrix(1 0 0 1 -118 -130)">«include»</text></g></g><g><path fill="none" stroke="#000000" paint-order="fill stroke markers" d=" M 1420 435 L 1281 425" stroke-miterlimit="10" stroke-dasharray=""/></g><g><path fill="none" stroke="#000000" paint-order="fill stroke markers" d=" M 1420 423 L 1203 338" stroke-miterlimit="10" stroke-dasharray=""/></g><g><path fill="none" stroke="#000000" paint-order="fill stroke markers" d=" M 1421 98 L 1234 141" stroke-miterlimit="10" stroke-dasharray=""/></g><g><path fill="none" stroke="#000000" paint-order="fill stroke markers" d=" M 1421 86 L 1297 71" stroke-miterlimit="10" stroke-dasharray=""/></g><g><path fill="#ffffff" stroke="none" paint-order="stroke fill markers" d=" M 1447.900478515625 763.85 C 1447.900478515625 758.96227952 1451.858280883625 755 1456.740478515625 755 C 1461.622676147625 755 1465.580478515625 758.96227952 1465.580478515625 763.85 C 1465.580478515625 768.73772048 1461.622676147625 772.7 1456.740478515625 772.7 C 1451.858280883625 772.7 1447.900478515625 768.73772048 1447.900478515625 763.85 Z"/></g><g><path fill="none" stroke="#000000" paint-order="fill stroke markers" d=" M 1447.900478515625 763.85 C 1447.900478515625 758.96227952 1451.858280883625 755 1456.740478515625 755 C 1461.622676147625 755 1465.580478515625 758.96227952 1465.580478515625 763.85 C 1465.580478515625 768.73772048 1461.622676147625 772.7 1456.740478515625 772.7 C 1451.858280883625 772.7 1447.900478515625 768.73772048 1447.900478515625 763.85 Z" stroke-miterlimit="10" stroke-dasharray=""/></g><g><path fill="none" stroke="#000000" paint-order="fill stroke markers" d=" M 1456.740478515625 772.7 L 1456.740478515625 790.3" stroke-miterlimit="10" stroke-dasharray=""/></g><g><path fill="none" stroke="#000000" paint-order="fill stroke markers" d=" M 1447.380478515625 779.3 L 1466.100478515625 779.3" stroke-miterlimit="10" stroke-dasharray=""/></g><g><path fill="none" stroke="#000000" paint-order="fill stroke markers" d=" M 1456.740478515625 790.3 L 1443.740478515625 808" stroke-miterlimit="10" stroke-dasharray=""/></g><g><path fill="none" stroke="#000000" paint-order="fill stroke markers" d=" M 1456.740478515625 790.3 L 1469.740478515625 808" stroke-miterlimit="10" stroke-dasharray=""/></g><g><g><path fill="none" stroke="none"/><text fill="#000000" stroke="none" font-family="Arial" font-size="13px" font-style="normal" font-weight="bold" text-decoration="undefined" x="1575.240478515625" y="952.5" text-anchor="middle" dominant-baseline="central" transform="matrix(1 0 0 1 -118 -130)">zapisovateľ</text></g></g><g><path fill="#ffffff" stroke="none" paint-order="stroke fill markers" d=" M 766.124111328125 763.85 C 766.124111328125 758.96227952 770.081913696125 755 774.964111328125 755 C 779.846308960125 755 783.804111328125 758.96227952 783.804111328125 763.85 C 783.804111328125 768.73772048 779.846308960125 772.7 774.964111328125 772.7 C 770.081913696125 772.7 766.124111328125 768.73772048 766.124111328125 763.85 Z"/></g><g><path fill="none" stroke="#000000" paint-order="fill stroke markers" d=" M 766.124111328125 763.85 C 766.124111328125 758.96227952 770.081913696125 755 774.964111328125 755 C 779.846308960125 755 783.804111328125 758.96227952 783.804111328125 763.85 C 783.804111328125 768.73772048 779.846308960125 772.7 774.964111328125 772.7 C 770.081913696125 772.7 766.124111328125 768.73772048 766.124111328125 763.85 Z" stroke-miterlimit="10" stroke-dasharray=""/></g><g><path fill="none" stroke="#000000" paint-order="fill stroke markers" d=" M 774.964111328125 772.7 L 774.964111328125 790.3" stroke-miterlimit="10" stroke-dasharray=""/></g><g><path fill="none" stroke="#000000" paint-order="fill stroke markers" d=" M 765.604111328125 779.3 L 784.324111328125 779.3" stroke-miterlimit="10" stroke-dasharray=""/></g><g><path fill="none" stroke="#000000" paint-order="fill stroke markers" d=" M 774.964111328125 790.3 L 761.964111328125 808" stroke-miterlimit="10" stroke-dasharray=""/></g><g><path fill="none" stroke="#000000" paint-order="fill stroke markers" d=" M 774.964111328125 790.3 L 787.964111328125 808" stroke-miterlimit="10" stroke-dasharray=""/></g><g><g><path fill="none" stroke="none"/><text fill="#000000" stroke="none" font-family="Arial" font-size="13px" font-style="normal" font-weight="bold" text-decoration="undefined" x="893.464111328125" y="952.5" text-anchor="middle" dominant-baseline="central" transform="matrix(1 0 0 1 -118 -130)">zadávateľ</text></g></g><g><path fill="none" stroke="#000000" paint-order="fill stroke markers" d=" M 1457 479 L 1456 753" stroke-miterlimit="10" stroke-dasharray=""/></g><g><path fill="#FFFFFF" stroke="none" paint-order="stroke fill markers" d=" M 1447.6552001719149 732.6440594462159 L 1456 753 L 1464.4931590569277 732.7055118509057"/></g><g><path fill="none" stroke="#000000" paint-order="fill stroke markers" d=" M 1447.6552001719149 732.6440594462159 L 1456 753 L 1464.4931590569277 732.7055118509057 L 1447.6552001719149 732.6440594462159" stroke-miterlimit="10" stroke-dasharray=""/></g><g><path fill="none" stroke="#000000" paint-order="fill stroke markers" d=" M 811 794 L 1415 794" stroke-miterlimit="10" stroke-dasharray=""/></g><g><path fill="#FFFFFF" stroke="none" paint-order="stroke fill markers" d=" M 1394.6746502847518 802.419035512032 L 1415 794 L 1394.6746502847516 785.580964487968"/></g><g><path fill="none" stroke="#000000" paint-order="fill stroke markers" d=" M 1394.6746502847518 802.419035512032 L 1415 794 L 1394.6746502847516 785.580964487968 L 1394.6746502847518 802.419035512032" stroke-miterlimit="10" stroke-dasharray=""/></g><g><path fill="#C0C0C0" stroke="none" paint-order="stroke fill markers" d=" M 1161 654.5 C 1161 644.835016 1220.5461215999999 637 1294 637 C 1367.4538784000001 637 1427 644.835016 1427 654.5 C 1427 664.164984 1367.4538784000001 672 1294 672 C 1220.5461215999999 672 1161 664.164984 1161 654.5 Z" fill-opacity="0.2"/></g><g><path fill="#ffffff" stroke="none" paint-order="stroke fill markers" d=" M 1154 647.5 C 1154 637.835016 1213.5461215999999 630 1287 630 C 1360.4538784000001 630 1420 637.835016 1420 647.5 C 1420 657.164984 1360.4538784000001 665 1287 665 C 1213.5461215999999 665 1154 657.164984 1154 647.5 Z"/></g><g><path fill="none" stroke="#000000" paint-order="fill stroke markers" d=" M 1154 647.5 C 1154 637.835016 1213.5461215999999 630 1287 630 C 1360.4538784000001 630 1420 637.835016 1420 647.5 C 1420 657.164984 1360.4538784000001 665 1287 665 C 1213.5461215999999 665 1154 657.164984 1154 647.5 Z" stroke-miterlimit="10" stroke-dasharray=""/></g><g><g><path fill="none" stroke="none"/><text fill="#000000" stroke="none" font-family="Arial" font-size="13px" font-style="normal" font-weight="bold" text-decoration="undefined" x="1405" y="778.5" text-anchor="middle" dominant-baseline="central" transform="matrix(1 0 0 1 -118 -130)">získava kontakt na účastníka</text></g></g><g><path fill="#C0C0C0" stroke="none" paint-order="stroke fill markers" d=" M 1113 726.5 C 1113 716.835016 1151.055792 709 1198 709 C 1244.944208 709 1283 716.835016 1283 726.5 C 1283 736.164984 1244.944208 744 1198 744 C 1151.055792 744 1113 736.164984 1113 726.5 Z" fill-opacity="0.2"/></g><g><path fill="#ffffff" stroke="none" paint-order="stroke fill markers" d=" M 1106 719.5 C 1106 709.835016 1144.055792 702 1191 702 C 1237.944208 702 1276 709.835016 1276 719.5 C 1276 729.164984 1237.944208 737 1191 737 C 1144.055792 737 1106 729.164984 1106 719.5 Z"/></g><g><path fill="none" stroke="#000000" paint-order="fill stroke markers" d=" M 1106 719.5 C 1106 709.835016 1144.055792 702 1191 702 C 1237.944208 702 1276 709.835016 1276 719.5 C 1276 729.164984 1237.944208 737 1191 737 C 1144.055792 737 1106 729.164984 1106 719.5 Z" stroke-miterlimit="10" stroke-dasharray=""/></g><g><g><path fill="none" stroke="none"/><text fill="#000000" stroke="none" font-family="Arial" font-size="13px" font-style="normal" font-weight="bold" text-decoration="undefined" x="1309" y="850.5" text-anchor="middle" dominant-baseline="central" transform="matrix(1 0 0 1 -118 -130)">vypľňa prezenčku</text></g></g><g><path fill="none" stroke="#000000" paint-order="fill stroke markers" d=" M 1415 758 L 1309 666" stroke-miterlimit="10" stroke-dasharray=""/></g><g><path fill="none" stroke="#000000" paint-order="fill stroke markers" d=" M 1415 782 L 1258 738" stroke-miterlimit="10" stroke-dasharray=""/></g><g><path fill="#C0C0C0" stroke="none" paint-order="stroke fill markers" d=" M 707 662.5 C 707 652.835016 740.3547824 645 781.5 645 C 822.6452176 645 856 652.835016 856 662.5 C 856 672.164984 822.6452176 680 781.5 680 C 740.3547824 680 707 672.164984 707 662.5 Z" fill-opacity="0.2"/></g><g><path fill="#ffffff" stroke="none" paint-order="stroke fill markers" d=" M 700 655.5 C 700 645.835016 733.3547824 638 774.5 638 C 815.6452176 638 849 645.835016 849 655.5 C 849 665.164984 815.6452176 673 774.5 673 C 733.3547824 673 700 665.164984 700 655.5 Z"/></g><g><path fill="none" stroke="#000000" paint-order="fill stroke markers" d=" M 700 655.5 C 700 645.835016 733.3547824 638 774.5 638 C 815.6452176 638 849 645.835016 849 655.5 C 849 665.164984 815.6452176 673 774.5 673 C 733.3547824 673 700 665.164984 700 655.5 Z" stroke-miterlimit="10" stroke-dasharray=""/></g><g><g><path fill="none" stroke="none"/><text fill="#000000" stroke="none" font-family="Arial" font-size="13px" font-style="normal" font-weight="bold" text-decoration="undefined" x="892.5" y="786.5" text-anchor="middle" dominant-baseline="central" transform="matrix(1 0 0 1 -118 -130)">zadáva výskum</text></g></g><g><path fill="#C0C0C0" stroke="none" paint-order="stroke fill markers" d=" M 913 662.5 C 913 652.835016 953.2943680000001 645 1003 645 C 1052.705632 645 1093 652.835016 1093 662.5 C 1093 672.164984 1052.705632 680 1003 680 C 953.2943680000001 680 913 672.164984 913 662.5 Z" fill-opacity="0.2"/></g><g><path fill="#ffffff" stroke="none" paint-order="stroke fill markers" d=" M 906 655.5 C 906 645.835016 946.2943680000001 638 996 638 C 1045.705632 638 1086 645.835016 1086 655.5 C 1086 665.164984 1045.705632 673 996 673 C 946.2943680000001 673 906 665.164984 906 655.5 Z"/></g><g><path fill="none" stroke="#000000" paint-order="fill stroke markers" d=" M 906 655.5 C 906 645.835016 946.2943680000001 638 996 638 C 1045.705632 638 1086 645.835016 1086 655.5 C 1086 665.164984 1045.705632 673 996 673 C 946.2943680000001 673 906 665.164984 906 655.5 Z" stroke-miterlimit="10" stroke-dasharray=""/></g><g><g><path fill="none" stroke="none"/><text fill="#000000" stroke="none" font-family="Arial" font-size="13px" font-style="normal" font-weight="bold" text-decoration="undefined" x="1114" y="786.5" text-anchor="middle" dominant-baseline="central" transform="matrix(1 0 0 1 -118 -130)">špecifikuje termíny</text></g></g><g><path fill="#C0C0C0" stroke="none" paint-order="stroke fill markers" d=" M 585 550.5 C 585 540.835016 673.1998944 533 782 533 C 890.8001056 533 979 540.835016 979 550.5 C 979 560.164984 890.8001056 568 782 568 C 673.1998944 568 585 560.164984 585 550.5 Z" fill-opacity="0.2"/></g><g><path fill="#ffffff" stroke="none" paint-order="stroke fill markers" d=" M 578 543.5 C 578 533.835016 666.1998944 526 775 526 C 883.8001056 526 972 533.835016 972 543.5 C 972 553.164984 883.8001056 561 775 561 C 666.1998944 561 578 553.164984 578 543.5 Z"/></g><g><path fill="none" stroke="#000000" paint-order="fill stroke markers" d=" M 578 543.5 C 578 533.835016 666.1998944 526 775 526 C 883.8001056 526 972 533.835016 972 543.5 C 972 553.164984 883.8001056 561 775 561 C 666.1998944 561 578 553.164984 578 543.5 Z" stroke-miterlimit="10" stroke-dasharray=""/></g><g><g><path fill="none" stroke="none"/><text fill="#000000" stroke="none" font-family="Arial" font-size="13px" font-style="normal" font-weight="bold" text-decoration="undefined" x="893" y="674.5" text-anchor="middle" dominant-baseline="central" transform="matrix(1 0 0 1 -118 -130)">špecifikuje požadované atribúty účastníkov</text></g></g><g><path fill="none" stroke="#000000" paint-order="fill stroke markers" d=" M 774 753 L 774 674" stroke-miterlimit="10" stroke-dasharray=""/></g><g><path fill="none" stroke="#000000" paint-order="fill stroke markers" d=" M 850 655 L 905 655" stroke-miterlimit="10" stroke-dasharray="3"/></g><g><path fill="none" stroke="#000000" paint-order="fill stroke markers" d=" M 894.8373251423759 659.209517756016 L 905 655 L 894.8373251423758 650.790482243984" stroke-miterlimit="10" stroke-dasharray=""/></g><g><rect fill="#ffffff" stroke="none" x="968" y="749" width="55.65625" height="13" transform="matrix(1 0 0 1 -118 -130)"/></g><g><g><path fill="none" stroke="none"/><text fill="#000000" stroke="none" font-family="Arial" font-size="13px" font-style="normal" font-weight="normal" text-decoration="undefined" x="995.828125" y="755.5" text-anchor="middle" dominant-baseline="central" transform="matrix(1 0 0 1 -118 -130)">«include»</text></g></g><g><path fill="none" stroke="#000000" paint-order="fill stroke markers" d=" M 774 637 L 775 562" stroke-miterlimit="10" stroke-dasharray="3"/></g><g><path fill="none" stroke="#000000" paint-order="fill stroke markers" d=" M 779.073653338154 572.2178935441972 L 775 562 L 770.6553660850678 572.105649714156" stroke-miterlimit="10" stroke-dasharray=""/></g><g><rect fill="#ffffff" stroke="none" x="835" y="722" width="55.65625" height="13" transform="matrix(1 0 0 1 -118 -130)"/></g><g><g><path fill="none" stroke="none"/><text fill="#000000" stroke="none" font-family="Arial" font-size="13px" font-style="normal" font-weight="normal" text-decoration="undefined" x="862.828125" y="728.5" text-anchor="middle" dominant-baseline="central" transform="matrix(1 0 0 1 -118 -130)">«include»</text></g></g><g><path fill="#C0C0C0" stroke="none" paint-order="stroke fill markers" d=" M 606 942.5 C 606 932.835016 684.5740175999999 925 781.5 925 C 878.4259824000001 925 957 932.835016 957 942.5 C 957 952.164984 878.4259824000001 960 781.5 960 C 684.5740175999999 960 606 952.164984 606 942.5 Z" fill-opacity="0.2"/></g><g><path fill="#ffffff" stroke="none" paint-order="stroke fill markers" d=" M 599 935.5 C 599 925.835016 677.5740175999999 918 774.5 918 C 871.4259824000001 918 950 925.835016 950 935.5 C 950 945.164984 871.4259824000001 953 774.5 953 C 677.5740175999999 953 599 945.164984 599 935.5 Z"/></g><g><path fill="none" stroke="#000000" paint-order="fill stroke markers" d=" M 599 935.5 C 599 925.835016 677.5740175999999 918 774.5 918 C 871.4259824000001 918 950 925.835016 950 935.5 C 950 945.164984 871.4259824000001 953 774.5 953 C 677.5740175999999 953 599 945.164984 599 935.5 Z" stroke-miterlimit="10" stroke-dasharray=""/></g><g><g><path fill="none" stroke="none"/><text fill="#000000" stroke="none" font-family="Arial" font-size="13px" font-style="normal" font-weight="bold" text-decoration="undefined" x="892.5" y="1066.5" text-anchor="middle" dominant-baseline="central" transform="matrix(1 0 0 1 -118 -130)">prezerá si rozvrh pre termíny výskumu</text></g></g><g><path fill="none" stroke="#000000" paint-order="fill stroke markers" d=" M 774 835 L 774 917" stroke-miterlimit="10" stroke-dasharray=""/></g><g><path fill="none" stroke="#000000" paint-order="fill stroke markers" d=" M 349 210 L 349 257" stroke-miterlimit="10" stroke-dasharray="3"/></g><g><path fill="none" stroke="#000000" paint-order="fill stroke markers" d=" M 344.790482243984 246.83732514237585 L 349 257 L 353.209517756016 246.83732514237585" stroke-miterlimit="10" stroke-dasharray=""/></g><g><rect fill="#ffffff" stroke="none" x="470" y="356" width="53.49169921875" height="13" transform="matrix(1 0 0 1 -118 -130)"/></g><g><g><path fill="none" stroke="none"/><text fill="#000000" stroke="none" font-family="Arial" font-size="13px" font-style="normal" font-weight="normal" text-decoration="undefined" x="496.745849609375" y="362.5" text-anchor="middle" dominant-baseline="central" transform="matrix(1 0 0 1 -118 -130)">«extend»</text></g></g><g><path fill="none" stroke="#000000" paint-order="fill stroke markers" d=" M 71 693 L 336 294" stroke-miterlimit="10" stroke-dasharray=""/></g><g><path fill="none" stroke="#000000" paint-order="fill stroke markers" d=" M 75 114 L 285 173" stroke-miterlimit="10" stroke-dasharray=""/></g></g></svg>
